# xmcd
#
# Track frame offsets:
#	150
#	23452
#	42905
#	67427
#	82855
#	99110
#	127645
#	145725
#	161270
#	181377
#	203495
#
# Disc length: 3031 seconds
#
# Revision: 1
# Processed by: cddbd v1.4b42PL1 Copyright (c) Steve Scherf et al.
# Submitted via: audiograbber 1.80.04
#
DISCID=7b0bd50b
DTITLE=B. B. King - Here And There: The Uncollected B. B. King
DYEAR=2001
DGENRE=Blues
TTITLE0=Caught A Touch Of Your Love (Grover Washington)
TTITLE1=Monday Morning Blues
TTITLE2=All You Ever Give Me Is The Blues
TTITLE3=Frosty (Albert Collins)
TTITLE4=T'ain't Nobody's Business
TTITLE5=Six Pack (Gary Burton)
TTITLE6=Three O'Clock Blues (Jimmy Smith)
TTITLE7=Yes Man
TTITLE8=The Thrill Is Gone (Willie Nelson)
TTITLE9=Get You Next To Me (Arthur Adams)
TTITLE10=Stormy Monday Blues (GRP All-Star Big Band)
EXTD=Released July 2001\nUniversal Music Enterprises, CD 63072\nProducer: Andy 
EXTD=McKaie
EXTT0=
EXTT1=
EXTT2=
EXTT3=
EXTT4=
EXTT5=
EXTT6=
EXTT7=
EXTT8=
EXTT9=
EXTT10=
PLAYORDER=
